# xmcd
#
# Track frame offsets:
#	150
#	14099
#	34833
#
# Disc length: 648 seconds
#
# Revision: 0
# Processed by: cddbd v1.5.2PL0 Copyright (c) Steve Scherf et al.
# Submitted via: audiograbber 1.83.01
#
DISCID=20028603
DTITLE=Jodl Stefanie - Farben dieser Welt
DYEAR=2015
DGENRE=Other
TTITLE0=Farben dieser Welt - Radiomix
TTITLE1=Farben dieser Welt - MaxiMix
TTITLE2=Farben dieser Welt - KaraokeMix
EXTD=Aufgenommen im Blauton-Studio, Feldkirch
EXTT0=
EXTT1=
EXTT2=
PLAYORDER=
